# xmcd CD database file
# Copyright (C) 1993-1998 Ti Kan
#
# Track frame offsets:
#  150
#  18987
#  33660
#  55415
#  67872
#  88255
#  105357
#  122402
#  133897
#  146917
#
# Disc length: 2127 seconds
#
# Revision: 1
# Processed by: cddbd v1.4b41PL1 Copyright (c) Steve Scherf et al.
# Submitted via: CDWizzard Release:4.35
#
DISCID=8b084d0a
DTITLE=Willie Waylon Kris and Cash - Willie Waylon Kris and Cash
DYEAR=1900
DGENRE=
TTITLE0=Me and Bobby McGee
TTITLE1=There Ain't No Good Chain Gang
TTITLE2=City of New Orleans
TTITLE3=Folsom Prison Blues
TTITLE4=Sunday Mornin' Comin' Down
TTITLE5=Take It To The Limit
TTITLE6=Ghost Riders In The Sky
TTITLE7=On The Road Again
TTITLE8=Man In Black
TTITLE9=Midnight Rider
EXTD=
EXTT0=
EXTT1=
EXTT2=
EXTT3=
EXTT4=
EXTT5=
EXTT6=
EXTT7=
EXTT8=
EXTT9=
PLAYORDER=
